# xmcd
# 
# Track frame offsets:
#     150
#     13837
#     32605
#     51235
#     60765
#     78645
#     95510
#     112450
#     126080
#     141562
#     158070
#     172800
#     187645
#     206327
#     217502
# 
# Disc length: 3143
# 
# Revision: 5
# Processed by: cddbd v1.5.2PL0 Copyright (c) Steve Scherf et al.
# Submitted via: BonkEnc v1.0.8
# 
DISCID=c20c450f
DTITLE=The Jon Spencer Blues Explosion - Acme
DYEAR=1998
DGENRE=Rock
TTITLE0=Calvin
TTITLE1=Magical Colors
TTITLE2=Do You Wanna Get Heavy?
TTITLE3=High Gear
TTITLE4=Talk About The Blues
TTITLE5=I Wanna Make It All Right
TTITLE6=Lovin' Machine
TTITLE7=Bernie
TTITLE8=Hell
TTITLE9=Blue Green Olga
TTITLE10=Give Me A Chance
TTITLE11=Desperate
TTITLE12=Torture
TTITLE13=Attack
TTITLE14=Calvin (Full)
EXTD=YEAR: 1998
EXTT0=
EXTT1=
EXTT2=
EXTT3=
EXTT4=
EXTT5=
EXTT6=
EXTT7=
EXTT8=
EXTT9=
EXTT10=
EXTT11=
EXTT12=
EXTT13=
EXTT14=
PLAYORDER=
